<?xml version="1.0" encoding="UTF-8"?>
<svg version="1.1" xmlns="http://www.w3.org/2000/svg" width="500" height="500">
<path d="M0 0 C165 0 330 0 500 0 C500 165 500 330 500 500 C335 500 170 500 0 500 C0 335 0 170 0 0 Z " fill="#621FA6" transform="translate(0,0)"/>
<path d="M0 0 C165 0 330 0 500 0 C500 165 500 330 500 500 C335 500 170 500 0 500 C0 335 0 170 0 0 Z M213 52 C212.29117676 52.12358887 211.58235352 52.24717773 210.85205078 52.37451172 C177.71368285 58.21496323 145.87785423 72.40432407 120 94 C119.42556152 94.474375 118.85112305 94.94875 118.25927734 95.4375 C84.80240715 123.16329046 61.46551923 160.09317127 50.625 202.25 C50.38612061 203.17079346 50.14724121 204.09158691 49.90112305 205.0402832 C46.28506071 219.98484196 45.61942718 235.00674495 45.6875 250.3125 C45.68932281 251.16751099 45.69114563 252.02252197 45.69302368 252.90344238 C45.73812318 265.48252964 46.13782639 277.69963437 49 290 C49.17160645 290.77037598 49.34321289 291.54075195 49.52001953 292.33447266 C59.73772815 337.28691193 84.66704886 378.43175212 121 407 C122.40765625 408.11568359 122.40765625 408.11568359 123.84375 409.25390625 C136.23750178 418.83241065 149.78408662 426.47402842 164 433 C165.09078857 433.50080078 165.09078857 433.50080078 166.20361328 434.01171875 C190.92686085 445.12042134 217.37409322 450.43743422 244.375 450.375 C245.25950836 450.37445618 246.14401672 450.37391235 247.05532837 450.37335205 C261.05580983 450.33381652 274.38038549 449.46825067 288 446 C288.87527344 445.78569336 289.75054687 445.57138672 290.65234375 445.35058594 C342.0801254 432.53096112 386.84832926 401.54531071 415.1875 356.5625 C416.47576736 354.38522169 417.74593786 352.19715765 419 350 C419.5269043 349.09556152 419.5269043 349.09556152 420.06445312 348.17285156 C437.23934364 318.47271021 445.64635868 284.89454576 445.33618164 250.72387695 C445.31224443 247.90743005 445.31569916 245.09191605 445.32226562 242.27539062 C445.30823148 233.30831054 445.09375781 224.76519094 443 216 C442.66548828 214.13988281 442.66548828 214.13988281 442.32421875 212.2421875 C435.83508922 177.92544117 420.13993076 145.25185248 397 119 C396.14921875 118.02804688 395.2984375 117.05609375 394.421875 116.0546875 C378.6763056 98.32634269 360.12856545 83.78873275 339 73 C337.95851807 72.45400146 337.95851807 72.45400146 336.89599609 71.89697266 C315.91796354 60.97515142 293.4560535 53.94006481 270 51 C269.22817383 50.89905029 268.45634766 50.79810059 267.66113281 50.6940918 C260.08288093 49.81048325 252.49615529 49.80016729 244.875 49.8125 C244.18547241 49.81310425 243.49594482 49.8137085 242.78552246 49.81433105 C232.70238968 49.83832876 222.93787947 50.13996908 213 52 Z " fill="#FEB4D9" transform="translate(0,0)"/>
<path d="M0 0 C8.20550633 7.2937834 12.48699123 14.27608991 15.14453125 24.90625 C15.14453125 27.87625 15.14453125 30.84625 15.14453125 33.90625 C0.62453125 33.90625 -13.89546875 33.90625 -28.85546875 33.90625 C-29.18546875 31.59625 -29.51546875 29.28625 -29.85546875 26.90625 C-32.28010285 22.63889399 -35.04936691 20.88160708 -39.58984375 19.41015625 C-47.15802699 17.72688791 -54.79026185 18.75607518 -61.85546875 21.90625 C-63.68775403 23.19592854 -63.68775403 23.19592854 -64.85546875 24.90625 C-64.72067417 29.52880382 -64.72067417 29.52880382 -62.59765625 33.5078125 C-56.15490057 38.67935181 -45.7384048 39.63171252 -37.85546875 41.28125 C3.02433814 49.9092493 3.02433814 49.9092493 14.14453125 65.90625 C20.5347987 77.17771299 20.33184275 89.38181205 17.17578125 101.69921875 C13.16457543 114.17346109 5.9485689 121.56764304 -5.48046875 127.65625 C-17.62842768 133.83521183 -30.00016875 135.57645984 -43.43408203 135.42773438 C-45.72276461 135.40632208 -48.00828759 135.42764726 -50.296875 135.453125 C-60.95608756 135.47023586 -70.60159495 133.7593323 -80.85546875 130.90625 C-80.85546875 131.56625 -80.85546875 132.22625 -80.85546875 132.90625 C-120.12546875 132.90625 -159.39546875 132.90625 -199.85546875 132.90625 C-199.85546875 85.71625 -199.85546875 38.52625 -199.85546875 -10.09375 C-184.67546875 -10.09375 -169.49546875 -10.09375 -153.85546875 -10.09375 C-153.85546875 24.88625 -153.85546875 59.86625 -153.85546875 95.90625 C-140.98546875 95.90625 -128.11546875 95.90625 -114.85546875 95.90625 C-114.85546875 91.94625 -114.85546875 87.98625 -114.85546875 83.90625 C-100.66546875 83.90625 -86.47546875 83.90625 -71.85546875 83.90625 C-70.86546875 88.36125 -70.86546875 88.36125 -69.85546875 92.90625 C-68.30376308 96.87172005 -67.32857662 97.68345234 -63.4296875 99.51953125 C-58.24422551 101.36563984 -53.24325989 101.31112782 -47.79296875 101.21875 C-46.83841797 101.22197266 -45.88386719 101.22519531 -44.90039062 101.22851562 C-39.50591863 101.1875638 -34.95497618 100.68152929 -29.85546875 98.90625 C-28.48078993 93.27553859 -28.48078993 93.27553859 -30.54296875 88.15625 C-38.39654132 81.8397037 -50.58481488 80.84370377 -60.13549805 78.82983398 C-78.32040961 74.94288116 -97.4104666 70.20208206 -108.29296875 53.73046875 C-113.62372058 43.63731731 -114.52472859 31.75935881 -112.16796875 20.671875 C-107.92728455 8.16185661 -100.74610624 0.97047173 -89.35546875 -5.21875 C-63.56772413 -17.67138714 -23.3142952 -18.11127532 0 0 Z " fill="#FDB3D8" transform="translate(342.85546875,187.09375)"/>
<path d="M0 0 C2.625 0.375 2.625 0.375 5 1 C5.625 3.875 5.625 3.875 6 7 C4 9 4 9 1.375 9.125 C0.59125 9.08375 -0.1925 9.0425 -1 9 C-1.625 5.625 -1.625 5.625 -2 2 C-1.34 1.34 -0.68 0.68 0 0 Z " fill="#9A57B3" transform="translate(270,337)"/>
<path d="M0 0 C2.97 0.495 2.97 0.495 6 1 C6.625 3.875 6.625 3.875 7 7 C5 9 5 9 2.375 9.125 C1.59125 9.08375 0.8075 9.0425 0 9 C0 6.03 0 3.06 0 0 Z " fill="#BE7BBD" transform="translate(196,337)"/>
<path d="M0 0 C1.67542976 0.28604898 3.34385343 0.61781233 5 1 C5.38063221 3.3260857 5.71269945 5.66055264 6 8 C5 9 5 9 1.9375 9.0625 C0.968125 9.041875 -0.00125 9.02125 -1 9 C-1.09765625 2.84765625 -1.09765625 2.84765625 -1 1 C-0.67 0.67 -0.34 0.34 0 0 Z " fill="#A15EB4" transform="translate(181,337)"/>
<path d="M0 0 C3 1 3 1 5 4 C5.66 2.68 6.32 1.36 7 0 C7.66 0 8.32 0 9 0 C9 2.64 9 5.28 9 8 C6 8 3 8 0 8 C0 5.36 0 2.72 0 0 Z " fill="#BF79C2" transform="translate(299,338)"/>
<path d="M0 0 C0.99 1.485 0.99 1.485 2 3 C2.99 2.01 3.98 1.02 5 0 C5.66 0.99 6.32 1.98 7 3 C7.66 2.01 8.32 1.02 9 0 C9.125 5.75 9.125 5.75 8 8 C7.34 8 6.68 8 6 8 C5.34 7.34 4.68 6.68 4 6 C3.67 6.66 3.34 7.32 3 8 C2.34 8 1.68 8 1 8 C0.67 5.36 0.34 2.72 0 0 Z " fill="#C580C2" transform="translate(148,338)"/>
<path d="M0 0 C2.475 0.495 2.475 0.495 5 1 C5 2.32 5 3.64 5 5 C4.360625 5.103125 3.72125 5.20625 3.0625 5.3125 C2.381875 5.539375 1.70125 5.76625 1 6 C0.67 6.99 0.34 7.98 0 9 C0 6.03 0 3.06 0 0 Z " fill="#AE6ABB" transform="translate(285,337)"/>
<path d="M0 0 C1.2065625 0.0309375 1.2065625 0.0309375 2.4375 0.0625 C2.4375 0.7225 2.4375 1.3825 2.4375 2.0625 C1.1175 2.0625 -0.2025 2.0625 -1.5625 2.0625 C-1.5625 2.7225 -1.5625 3.3825 -1.5625 4.0625 C-0.5725 4.3925 0.4175 4.7225 1.4375 5.0625 C0.4475 5.0625 -0.5425 5.0625 -1.5625 5.0625 C-1.5625 6.0525 -1.5625 7.0425 -1.5625 8.0625 C-0.2425 8.3925 1.0775 8.7225 2.4375 9.0625 C0.4575 9.0625 -1.5225 9.0625 -3.5625 9.0625 C-3.66015625 2.91015625 -3.66015625 2.91015625 -3.5625 1.0625 C-2.5625 0.0625 -2.5625 0.0625 0 0 Z " fill="#B471BA" transform="translate(214.5625,336.9375)"/>
<path d="M0 0 C1.2065625 0.0309375 1.2065625 0.0309375 2.4375 0.0625 C2.4375 0.7225 2.4375 1.3825 2.4375 2.0625 C1.1175 2.0625 -0.2025 2.0625 -1.5625 2.0625 C-1.5625 2.7225 -1.5625 3.3825 -1.5625 4.0625 C-0.5725 4.3925 0.4175 4.7225 1.4375 5.0625 C0.4475 5.0625 -0.5425 5.0625 -1.5625 5.0625 C-1.5625 6.0525 -1.5625 7.0425 -1.5625 8.0625 C-0.2425 8.3925 1.0775 8.7225 2.4375 9.0625 C0.4575 9.0625 -1.5225 9.0625 -3.5625 9.0625 C-3.66015625 2.91015625 -3.66015625 2.91015625 -3.5625 1.0625 C-2.5625 0.0625 -2.5625 0.0625 0 0 Z " fill="#B571BB" transform="translate(169.5625,336.9375)"/>
<path d="M0 0 C1.32 0 2.64 0 4 0 C4 1.65 4 3.3 4 5 C2.68 5.33 1.36 5.66 0 6 C0 4.02 0 2.04 0 0 Z " fill="#5F1FA0" transform="translate(197,339)"/>
<path d="M0 0 C2.31 0 4.62 0 7 0 C7 0.66 7 1.32 7 2 C6.01 2 5.02 2 4 2 C4 4.31 4 6.62 4 9 C3.67 9 3.34 9 3 9 C3 6.69 3 4.38 3 2 C2.01 2 1.02 2 0 2 C0 1.34 0 0.68 0 0 Z " fill="#C37CC6" transform="translate(346,337)"/>
</svg>
